<svg width="278" height="24" viewBox="0 0 278 24" fill="none" xmlns="http://www.w3.org/2000/svg">
<path d="M249.91 16.0776H248.977L248.646 15.7588C249.803 14.413 250.5 12.6657 250.5 10.765C250.5 6.52681 247.064 3.09137 242.826 3.09137C238.588 3.09137 235.153 6.52681 235.153 10.765C235.153 15.0032 238.588 18.4387 242.826 18.4387C244.727 18.4387 246.474 17.7422 247.82 16.5852L248.139 16.9158V17.8484L254.042 23.7394L255.801 21.9804L249.91 16.0776ZM242.826 16.0776C239.887 16.0776 237.514 13.7046 237.514 10.765C237.514 7.82543 239.887 5.4525 242.826 5.4525C245.766 5.4525 248.139 7.82543 248.139 10.765C248.139 13.7046 245.766 16.0776 242.826 16.0776Z" fill="black" fill-opacity="0.6"/>
<path fill-rule="evenodd" clip-rule="evenodd" d="M124.383 23.8037L55.3408 23.8037L56.4179 21.2227L125.46 21.2227L124.383 23.8037Z" fill="#FF0000" fill-opacity="0.6"/>
<path d="M9.05116 13.6221C9.05116 13.917 8.99067 14.1892 8.86969 14.4388C8.7487 14.6807 8.57479 14.8887 8.34794 15.0626C8.12109 15.2365 7.84132 15.3726 7.50861 15.4709C7.18346 15.5692 6.80917 15.6184 6.38572 15.6184C5.90934 15.6184 5.47077 15.5654 5.07001 15.4596C4.67681 15.3537 4.34032 15.1874 4.06055 14.9605C3.77321 14.7337 3.55014 14.4425 3.39135 14.0871C3.23256 13.7318 3.1456 13.3045 3.13048 12.8055H0C0 13.6599 0.162573 14.4047 0.487719 15.0399C0.820427 15.6751 1.27034 16.2271 1.83745 16.6959C2.43482 17.1723 3.13426 17.5352 3.93578 17.7847C4.74487 18.0267 5.56151 18.1477 6.38572 18.1477C7.22505 18.1477 8.00011 18.0494 8.71089 17.8528C9.42168 17.6486 10.0342 17.35 10.5483 16.9568C11.0625 16.5711 11.4633 16.0985 11.7506 15.539C12.0455 14.9718 12.193 14.3253 12.193 13.5994C12.193 12.7601 12.0002 12.0191 11.6145 11.3763C11.2289 10.7336 10.7109 10.1703 10.0606 9.68633C9.62962 9.39143 9.15702 9.13056 8.64284 8.90371C8.12866 8.67687 7.58801 8.48405 7.02089 8.32526C6.49158 8.18159 6.0152 8.02657 5.59176 7.86022C5.17587 7.69387 4.82048 7.50861 4.52558 7.30445C4.23068 7.10785 4.00384 6.88478 3.84504 6.63525C3.69381 6.38572 3.6182 6.10594 3.6182 5.79592C3.6182 5.50102 3.67491 5.2288 3.78833 4.97927C3.90932 4.72218 4.08323 4.49912 4.31008 4.31008C4.53692 4.1286 4.81292 3.98871 5.13807 3.89041C5.47077 3.78455 5.84885 3.73162 6.2723 3.73162C6.73355 3.73162 7.13431 3.79589 7.47458 3.92444C7.82241 4.04542 8.11353 4.21556 8.34794 4.43484C8.57479 4.66169 8.74492 4.93012 8.85834 5.24015C8.97933 5.55017 9.04738 5.89044 9.0625 6.26095H12.1703C12.1703 5.51992 12.0266 4.83939 11.7393 4.21934C11.452 3.59929 11.0512 3.06242 10.537 2.60873C10.0228 2.1626 9.40656 1.81477 8.68821 1.56524C7.97742 1.31571 7.19102 1.19094 6.32901 1.19094C5.49724 1.19094 4.72596 1.30058 4.01518 1.51987C3.30439 1.73159 2.68813 2.03784 2.16638 2.4386C1.64463 2.83936 1.23631 3.3233 0.941412 3.89041C0.646512 4.45753 0.499062 5.08892 0.499062 5.78458C0.499062 6.3895 0.608704 6.94905 0.827989 7.46324C1.05483 7.97742 1.38754 8.44624 1.82611 8.86969C2.26468 9.29313 2.82802 9.68255 3.51612 10.0379C4.21178 10.3933 5.01708 10.6958 5.93203 10.9453C6.52183 11.1041 7.01333 11.278 7.40653 11.4671C7.80729 11.6486 8.13244 11.8489 8.38197 12.0682C8.62394 12.2951 8.79407 12.537 8.89237 12.7941C8.99823 13.0512 9.05116 13.3272 9.05116 13.6221Z" fill="white"/>
<path d="M22.2082 17.9322H25.4068V17.7394C25.248 17.4293 25.127 17.0588 25.0438 16.6278C24.9606 16.1968 24.9191 15.6524 24.9191 14.9945V9.7317C24.9191 9.02092 24.7867 8.39709 24.5221 7.86022C24.2574 7.31579 23.8907 6.86588 23.4219 6.51049C22.9531 6.15509 22.3973 5.88666 21.7546 5.70518C21.1194 5.5237 20.4313 5.43297 19.6902 5.43297C18.866 5.43297 18.1326 5.53883 17.4898 5.75055C16.8547 5.95471 16.3178 6.23449 15.8792 6.58988C15.4331 6.94527 15.0928 7.35738 14.8584 7.82619C14.6316 8.29501 14.5182 8.79029 14.5182 9.31204H17.6713C17.6713 9.09275 17.7016 8.89237 17.7621 8.71089C17.8301 8.52942 17.9322 8.3744 18.0683 8.24586C18.2195 8.10219 18.4161 7.99255 18.6581 7.91693C18.9001 7.83376 19.1874 7.79217 19.5201 7.79217C19.8982 7.79217 20.2271 7.84132 20.5069 7.93962C20.7942 8.03035 21.0324 8.16268 21.2215 8.3366C21.4029 8.50295 21.539 8.70333 21.6298 8.93774C21.7205 9.16459 21.7659 9.42168 21.7659 9.70902V10.4349H20.0078C19.1005 10.4349 18.2951 10.5181 17.5919 10.6845C16.8963 10.8432 16.3102 11.0777 15.8339 11.3877C15.3046 11.7279 14.9076 12.1627 14.6429 12.692C14.3783 13.2138 14.2459 13.8149 14.2459 14.4955C14.2459 15.0248 14.3518 15.5163 14.5635 15.97C14.7752 16.4161 15.0701 16.8017 15.4482 17.1269C15.8263 17.452 16.2762 17.7053 16.798 17.8868C17.3273 18.0683 17.9057 18.159 18.5333 18.159C18.919 18.159 19.2781 18.1212 19.6109 18.0456C19.9436 17.9776 20.2498 17.8793 20.5296 17.7507C20.8018 17.6297 21.0513 17.4861 21.2782 17.3197C21.505 17.1534 21.7054 16.9757 21.8793 16.7866C21.9171 17.0059 21.9625 17.2138 22.0154 17.4104C22.0684 17.607 22.1326 17.781 22.2082 17.9322ZM19.2025 15.7204C18.9076 15.7204 18.6468 15.6864 18.4199 15.6184C18.2006 15.5427 18.0154 15.4444 17.8641 15.3235C17.7129 15.1949 17.5957 15.0399 17.5125 14.8584C17.4369 14.6694 17.3991 14.4652 17.3991 14.2459C17.3991 13.9662 17.452 13.7091 17.5579 13.4747C17.6638 13.2327 17.8263 13.0248 18.0456 12.8508C18.2649 12.6845 18.5485 12.5559 18.8963 12.4652C19.2441 12.3669 19.6638 12.3177 20.1553 12.3177H21.7659V14.4274C21.6752 14.5862 21.5504 14.745 21.3916 14.9038C21.2328 15.055 21.0438 15.1911 20.8245 15.3121C20.6052 15.4331 20.3594 15.5314 20.0872 15.607C19.815 15.6826 19.5201 15.7204 19.2025 15.7204Z" fill="white"/>
<path d="M31.543 17.9322H34.7075V7.98499H39.131V5.65981H34.7075V4.99062C34.7075 4.62766 34.7528 4.30252 34.8436 4.01518C34.9419 3.72784 35.0893 3.48587 35.2859 3.28927C35.5052 3.05486 35.8001 2.87717 36.1706 2.75618C36.5411 2.6352 36.9911 2.5747 37.5204 2.5747C38.0119 2.5747 38.4391 2.59739 38.802 2.64276C39.165 2.68813 39.4901 2.74106 39.7775 2.80155L39.9816 0.328927C39.7245 0.283558 39.475 0.241969 39.233 0.204162C38.9986 0.166354 38.7642 0.132327 38.5298 0.102081C38.2954 0.0718346 38.0534 0.04915 37.8039 0.0340269C37.5619 0.0113423 37.3086 0 37.044 0C36.2047 0 35.4447 0.109642 34.7642 0.328927C34.0836 0.54065 33.5052 0.858235 33.0288 1.28168C32.5524 1.70513 32.1857 2.22687 31.9286 2.84692C31.6715 3.46697 31.543 4.18153 31.543 4.99062V5.65981H28.3217V7.98499H31.543V17.9322Z" fill="white"/>
<path d="M48.3976 18.159C49.5848 18.159 50.6132 17.9284 51.4827 17.4672C52.3523 17.0059 52.9875 16.4917 53.3883 15.9246L51.8117 14.2233C51.4487 14.6921 50.9761 15.0437 50.3939 15.2781C49.8116 15.5125 49.2105 15.6297 48.5905 15.6297C48.1519 15.6297 47.7473 15.5616 47.3768 15.4255C47.0063 15.2894 46.6774 15.0966 46.39 14.8471C46.1103 14.6051 45.8872 14.3367 45.7208 14.0418C45.5545 13.7393 45.4184 13.3423 45.3125 12.8508V12.8168H53.6378V11.4784C53.6378 10.5786 53.513 9.75817 53.2635 9.01714C53.014 8.26854 52.651 7.62959 52.1746 7.10029C51.6907 6.57098 51.1009 6.16265 50.4052 5.87532C49.7171 5.58042 48.9307 5.43297 48.046 5.43297C47.1916 5.43297 46.4014 5.58798 45.6755 5.898C44.9496 6.20802 44.322 6.64281 43.7927 7.20237C43.2633 7.76192 42.8512 8.43112 42.5563 9.20996C42.2614 9.98123 42.114 10.8357 42.114 11.7733V12.227C42.114 13.0512 42.2614 13.8263 42.5563 14.5522C42.8588 15.2705 43.286 15.8944 43.838 16.4237C44.39 16.9605 45.0517 17.384 45.8229 17.694C46.5942 18.004 47.4524 18.159 48.3976 18.159ZM48.0233 7.98499C48.4241 7.98499 48.7757 8.04926 49.0782 8.1778C49.3882 8.29879 49.6491 8.46514 49.8608 8.67687C50.0725 8.89615 50.2389 9.15324 50.3599 9.44814C50.4808 9.74304 50.5413 10.0568 50.5413 10.3896V10.6391H45.3692C45.4449 10.2383 45.5583 9.87537 45.7095 9.55023C45.8607 9.22508 46.0498 8.9453 46.2766 8.71089C46.4959 8.47649 46.753 8.29879 47.0479 8.1778C47.3428 8.04926 47.6679 7.98499 48.0233 7.98499Z" fill="white"/>
<path d="M56.065 11.7053V11.9435C56.065 12.8357 56.1747 13.6637 56.394 14.4274C56.6132 15.1836 56.9308 15.8376 57.3467 16.3896C57.755 16.9416 58.2541 17.3764 58.8439 17.694C59.4413 18.004 60.1142 18.159 60.8628 18.159C61.5509 18.159 62.1559 18.0267 62.6776 17.7621C63.1993 17.4974 63.653 17.1269 64.0387 16.6505L64.1975 17.9322H67.0444V0.510404H63.8799V6.76002C63.5018 6.33657 63.067 6.01142 62.5755 5.78458C62.0916 5.55017 61.5282 5.43297 60.8855 5.43297C60.1218 5.43297 59.4413 5.5842 58.8439 5.88666C58.2541 6.18912 57.7513 6.61635 57.3354 7.16834C56.9195 7.72033 56.6019 8.38197 56.3826 9.15324C56.1709 9.92452 56.065 10.7752 56.065 11.7053ZM59.2182 11.9435V11.7053C59.2182 11.1911 59.2636 10.7109 59.3543 10.2648C59.445 9.8111 59.5887 9.41412 59.7853 9.07385C59.9819 8.74114 60.2352 8.48027 60.5452 8.29123C60.8628 8.09463 61.2447 7.99633 61.6908 7.99633C62.2277 7.99633 62.6738 8.11353 63.0292 8.34794C63.3846 8.57479 63.6682 8.89615 63.8799 9.31204V14.28C63.6682 14.6883 63.3808 15.0097 63.0179 15.2441C62.6625 15.4785 62.2126 15.5957 61.6681 15.5957C61.222 15.5957 60.8439 15.5012 60.5339 15.3121C60.2239 15.1231 59.9706 14.8622 59.774 14.5295C59.5774 14.2044 59.4337 13.8225 59.343 13.3839C59.2598 12.9378 59.2182 12.4576 59.2182 11.9435Z" fill="white"/>
<path d="M69.914 11.6826V11.9208C69.914 12.8206 70.0425 13.6524 70.2996 14.4161C70.5567 15.1722 70.9348 15.8301 71.4339 16.3896C71.9254 16.9492 72.5303 17.3878 73.2486 17.7053C73.9745 18.0154 74.7987 18.1704 75.7213 18.1704C76.6362 18.1704 77.4529 18.0154 78.1712 17.7053C78.8895 17.3878 79.4945 16.9492 79.986 16.3896C80.4775 15.8301 80.8518 15.1722 81.1089 14.4161C81.366 13.6524 81.4945 12.8206 81.4945 11.9208V11.6826C81.4945 10.7903 81.366 9.96611 81.1089 9.20996C80.8518 8.44624 80.4775 7.78461 79.986 7.22505C79.4869 6.6655 78.8782 6.22693 78.1599 5.90934C77.4415 5.59176 76.6211 5.43297 75.6986 5.43297C74.7761 5.43297 73.9556 5.59176 73.2373 5.90934C72.5265 6.22693 71.9254 6.6655 71.4339 7.22505C70.9348 7.78461 70.5567 8.44624 70.2996 9.20996C70.0425 9.96611 69.914 10.7903 69.914 11.6826ZM73.0672 11.9208V11.6826C73.0672 11.1835 73.1163 10.7109 73.2146 10.2648C73.3129 9.81866 73.4679 9.42546 73.6796 9.08519C73.8914 8.74492 74.1636 8.47649 74.4963 8.27989C74.829 8.08329 75.2298 7.98499 75.6986 7.98499C76.1749 7.98499 76.5795 8.08329 76.9122 8.27989C77.2449 8.47649 77.5171 8.74492 77.7288 9.08519C77.933 9.42546 78.0842 9.81866 78.1825 10.2648C78.2808 10.7109 78.33 11.1835 78.33 11.6826V11.9208C78.33 12.435 78.2808 12.9189 78.1825 13.3726C78.0842 13.8187 77.933 14.2081 77.7288 14.5408C77.5171 14.8811 77.2449 15.1495 76.9122 15.3461C76.5795 15.5427 76.1825 15.641 75.7213 15.641C75.2449 15.641 74.8366 15.5427 74.4963 15.3461C74.1636 15.1495 73.8914 14.8811 73.6796 14.5408C73.4679 14.2081 73.3129 13.8187 73.2146 13.3726C73.1163 12.9189 73.0672 12.435 73.0672 11.9208Z" fill="white"/>
<path d="M89.729 15.641C89.2224 15.641 88.8027 15.539 88.47 15.3348C88.1449 15.1306 87.8878 14.8584 87.6987 14.5182C87.5021 14.1854 87.366 13.7998 87.2904 13.3612C87.2148 12.9151 87.177 12.4539 87.177 11.9775V11.6372C87.177 11.1684 87.2148 10.7147 87.2904 10.2761C87.3736 9.83756 87.5135 9.44814 87.7101 9.10787C87.8991 8.76761 88.1562 8.49539 88.4814 8.29123C88.8065 8.08707 89.2186 7.98499 89.7177 7.98499C90.0579 7.98499 90.3717 8.04548 90.6591 8.16646C90.9464 8.27989 91.1922 8.4349 91.3963 8.6315C91.6005 8.8281 91.7555 9.06251 91.8614 9.33472C91.9672 9.60694 92.0126 9.89427 91.9975 10.1967H94.9692C94.9843 9.47083 94.8633 8.81676 94.6062 8.23452C94.3491 7.64472 93.9899 7.14187 93.5287 6.72599C93.0599 6.31767 92.5041 6.00008 91.8614 5.77324C91.2186 5.54639 90.5192 5.43297 89.763 5.43297C88.8178 5.43297 87.9861 5.59554 87.2677 5.92069C86.5569 6.24583 85.9596 6.68818 85.4756 7.24774C84.9917 7.80729 84.6287 8.46514 84.3868 9.2213C84.1448 9.96989 84.0238 10.7752 84.0238 11.6372V11.9775C84.0238 12.8395 84.1448 13.6486 84.3868 14.4047C84.6363 15.1533 85.003 15.8074 85.487 16.367C85.9634 16.9265 86.5607 17.3689 87.2791 17.694C87.9974 18.0116 88.833 18.1704 89.7857 18.1704C90.4889 18.1704 91.1544 18.0607 91.782 17.8415C92.4171 17.6146 92.9729 17.3046 93.4493 16.9114C93.9257 16.5182 94.3 16.0494 94.5722 15.5049C94.852 14.9605 94.9843 14.3707 94.9692 13.7355H91.9975C92.0126 14.0229 91.9597 14.2837 91.8387 14.5182C91.7253 14.7526 91.5627 14.9529 91.351 15.1193C91.1392 15.2857 90.8935 15.4142 90.6137 15.5049C90.3339 15.5957 90.039 15.641 89.729 15.641Z" fill="white"/>
<path d="M106.164 14.5635C106.164 14.7526 106.115 14.9265 106.017 15.0853C105.926 15.2441 105.786 15.384 105.597 15.5049C105.4 15.6259 105.147 15.7242 104.837 15.7998C104.535 15.8679 104.179 15.9019 103.771 15.9019C103.431 15.9019 103.098 15.8679 102.773 15.7998C102.455 15.7318 102.172 15.6221 101.922 15.4709C101.672 15.3272 101.468 15.1382 101.31 14.9038C101.151 14.6618 101.06 14.3745 101.037 14.0418H98.0316C98.0316 14.5408 98.1526 15.0399 98.3945 15.539C98.6441 16.0305 99.007 16.469 99.4834 16.8547C99.9598 17.2479 100.55 17.5655 101.253 17.8074C101.964 18.0494 102.78 18.1704 103.703 18.1704C104.542 18.1704 105.302 18.0796 105.983 17.8982C106.663 17.7091 107.245 17.4483 107.729 17.1155C108.206 16.7828 108.572 16.3896 108.829 15.9359C109.094 15.4747 109.226 14.9718 109.226 14.4274C109.226 13.8376 109.094 13.331 108.829 12.9075C108.572 12.4765 108.213 12.1098 107.752 11.8073C107.291 11.5124 106.742 11.2705 106.107 11.0814C105.472 10.8924 104.784 10.7374 104.043 10.6164C103.529 10.5408 103.105 10.4538 102.773 10.3555C102.44 10.2497 102.179 10.1325 101.99 10.0039C101.793 9.88293 101.657 9.74682 101.582 9.59559C101.506 9.4368 101.468 9.26667 101.468 9.08519C101.468 8.90371 101.51 8.73358 101.593 8.57479C101.684 8.40843 101.812 8.26476 101.979 8.14378C102.16 8.00767 102.395 7.90181 102.682 7.82619C102.969 7.75058 103.306 7.71277 103.691 7.71277C104.145 7.71277 104.531 7.76948 104.848 7.88291C105.173 7.99633 105.431 8.14756 105.62 8.3366C105.756 8.48027 105.858 8.64284 105.926 8.82432C105.994 8.99823 106.028 9.18727 106.028 9.39143H109.181C109.181 8.82432 109.056 8.29879 108.807 7.81485C108.557 7.33091 108.198 6.91125 107.729 6.55585C107.253 6.20802 106.674 5.93581 105.994 5.73921C105.313 5.53505 104.546 5.43297 103.691 5.43297C102.875 5.43297 102.141 5.53505 101.491 5.73921C100.841 5.94337 100.289 6.21937 99.835 6.5672C99.3813 6.91503 99.0335 7.31957 98.7915 7.78082C98.5495 8.24208 98.4286 8.72602 98.4286 9.23264C98.4286 9.75439 98.5458 10.2156 98.7802 10.6164C99.0221 11.0172 99.3548 11.3688 99.7783 11.6712C100.202 11.9813 100.708 12.2459 101.298 12.4652C101.896 12.6769 102.553 12.8546 103.272 12.9983C103.839 13.1041 104.308 13.21 104.678 13.3159C105.049 13.4217 105.347 13.5352 105.574 13.6561C105.793 13.7847 105.945 13.9208 106.028 14.0645C106.119 14.2081 106.164 14.3745 106.164 14.5635Z" fill="white"/>
<path d="M137.56 10.8886V8.48405C137.56 7.73545 137.488 7.02845 137.344 6.36304C137.208 5.69762 137.008 5.08513 136.743 4.52558C136.501 4.03408 136.21 3.58417 135.87 3.17585C135.537 2.76752 135.147 2.41969 134.701 2.13235C134.255 1.82989 133.752 1.59927 133.193 1.44047C132.641 1.27412 132.047 1.19094 131.412 1.19094C130.784 1.19094 130.202 1.27034 129.665 1.42913C129.128 1.58792 128.644 1.81477 128.213 2.10967C127.775 2.41213 127.385 2.77508 127.045 3.19853C126.713 3.62198 126.429 4.09457 126.195 4.61632C125.953 5.16831 125.767 5.76945 125.639 6.41975C125.518 7.07004 125.457 7.75814 125.457 8.48405V10.8886C125.457 11.5692 125.51 12.2157 125.616 12.8282C125.729 13.4406 125.892 14.0078 126.104 14.5295C126.338 15.0966 126.629 15.607 126.977 16.0607C127.325 16.5068 127.718 16.8887 128.157 17.2063C128.603 17.5087 129.098 17.7432 129.643 17.9095C130.187 18.0759 130.781 18.159 131.423 18.159C132.028 18.159 132.592 18.0834 133.113 17.9322C133.643 17.7885 134.127 17.5844 134.565 17.3197C135.049 17.0172 135.48 16.6392 135.858 16.1855C136.236 15.7318 136.554 15.2327 136.811 14.6883C137.053 14.1439 137.238 13.5541 137.367 12.9189C137.495 12.2762 137.56 11.5994 137.56 10.8886ZM134.327 8.46136V10.8886C134.327 11.2969 134.304 11.6901 134.259 12.0682C134.221 12.4463 134.161 12.7941 134.077 13.1117C133.972 13.52 133.828 13.8868 133.646 14.2119C133.473 14.5295 133.257 14.7942 133 15.0059C132.796 15.1798 132.561 15.3121 132.297 15.4029C132.032 15.4936 131.741 15.539 131.423 15.539C131.091 15.539 130.792 15.4898 130.527 15.3915C130.27 15.2932 130.04 15.1533 129.835 14.9718C129.616 14.7677 129.423 14.503 129.257 14.1779C129.098 13.8452 128.977 13.4784 128.894 13.0777C128.818 12.7601 128.765 12.416 128.735 12.0455C128.705 11.675 128.69 11.2894 128.69 10.8886V8.46136C128.69 8.03792 128.705 7.63337 128.735 7.24774C128.773 6.8621 128.83 6.5067 128.905 6.18156C129.004 5.75811 129.14 5.3876 129.314 5.07001C129.495 4.75243 129.714 4.48777 129.972 4.27605C130.161 4.13238 130.372 4.02274 130.607 3.94712C130.849 3.87151 131.117 3.8337 131.412 3.8337C131.722 3.8337 132.002 3.87529 132.251 3.95847C132.508 4.04164 132.739 4.15885 132.943 4.31008C133.2 4.51424 133.423 4.77889 133.612 5.10404C133.801 5.42162 133.953 5.78458 134.066 6.1929C134.157 6.51805 134.221 6.87344 134.259 7.25908C134.304 7.63715 134.327 8.03792 134.327 8.46136Z" fill="white"/>
<path d="M151.159 11.9208V11.6826C151.159 10.9415 151.091 10.2459 150.955 9.59559C150.826 8.9453 150.626 8.35928 150.354 7.83754C150.18 7.51239 149.979 7.21371 149.753 6.94149C149.526 6.66172 149.272 6.42353 148.993 6.22693C148.645 5.96984 148.248 5.77324 147.802 5.63713C147.363 5.50102 146.879 5.43297 146.35 5.43297C145.964 5.43297 145.605 5.47456 145.272 5.55773C144.947 5.63335 144.645 5.75055 144.365 5.90934C144.168 6.0152 143.983 6.14375 143.809 6.29498C143.635 6.43865 143.473 6.59744 143.321 6.77136V0.510404H140.168V17.9322H143.004L143.151 16.6278C143.28 16.7942 143.416 16.9492 143.56 17.0929C143.703 17.229 143.858 17.3537 144.025 17.4672C144.335 17.694 144.682 17.8641 145.068 17.9776C145.461 18.0985 145.896 18.159 146.372 18.159C146.894 18.159 147.371 18.091 147.802 17.9549C148.24 17.8263 148.633 17.6373 148.981 17.3878C149.367 17.1231 149.7 16.7904 149.979 16.3896C150.267 15.9889 150.497 15.5427 150.671 15.0512C150.83 14.6051 150.951 14.1212 151.034 13.5994C151.117 13.0701 151.159 12.5106 151.159 11.9208ZM148.006 11.6826V11.9208C148.006 12.2384 147.991 12.5446 147.96 12.8395C147.938 13.1344 147.896 13.4066 147.836 13.6561C147.76 13.9964 147.647 14.3027 147.495 14.5749C147.352 14.8395 147.163 15.055 146.928 15.2214C146.762 15.3424 146.565 15.4369 146.338 15.5049C146.112 15.573 145.858 15.607 145.579 15.607C145.253 15.607 144.962 15.5692 144.705 15.4936C144.456 15.418 144.236 15.3083 144.047 15.1647C143.889 15.0512 143.749 14.9189 143.628 14.7677C143.514 14.6089 143.412 14.435 143.321 14.2459V9.35741C143.389 9.21374 143.465 9.08141 143.548 8.96042C143.631 8.83188 143.722 8.71846 143.82 8.62016C144.025 8.41599 144.27 8.26098 144.558 8.15512C144.845 8.04926 145.178 7.99633 145.556 7.99633C145.836 7.99633 146.085 8.03036 146.304 8.09841C146.524 8.1589 146.72 8.25342 146.894 8.38197C147.159 8.58613 147.355 8.81297 147.484 9.0625C147.62 9.30447 147.73 9.58047 147.813 9.89049C147.881 10.1551 147.93 10.4387 147.96 10.7412C147.991 11.0436 148.006 11.3574 148.006 11.6826Z" fill="white"/>
<path d="M161.968 14.5635C161.968 14.7526 161.919 14.9265 161.821 15.0853C161.73 15.2441 161.59 15.384 161.401 15.5049C161.204 15.6259 160.951 15.7242 160.641 15.7998C160.339 15.8679 159.983 15.9019 159.575 15.9019C159.235 15.9019 158.902 15.8679 158.577 15.7998C158.259 15.7318 157.976 15.6221 157.726 15.4709C157.477 15.3272 157.272 15.1382 157.114 14.9038C156.955 14.6618 156.864 14.3745 156.841 14.0418H153.836C153.836 14.5408 153.957 15.0399 154.199 15.539C154.448 16.0305 154.811 16.469 155.288 16.8547C155.764 17.2479 156.354 17.5655 157.057 17.8074C157.768 18.0494 158.584 18.1704 159.507 18.1704C160.346 18.1704 161.106 18.0796 161.787 17.8982C162.467 17.7091 163.049 17.4483 163.533 17.1155C164.01 16.7828 164.377 16.3896 164.634 15.9359C164.898 15.4747 165.031 14.9718 165.031 14.4274C165.031 13.8376 164.898 13.331 164.634 12.9075C164.377 12.4765 164.017 12.1098 163.556 11.8073C163.095 11.5124 162.547 11.2705 161.911 11.0814C161.276 10.8924 160.588 10.7374 159.847 10.6164C159.333 10.5408 158.91 10.4538 158.577 10.3555C158.244 10.2497 157.983 10.1325 157.794 10.0039C157.598 9.88293 157.462 9.74682 157.386 9.59559C157.31 9.4368 157.272 9.26667 157.272 9.08519C157.272 8.90371 157.314 8.73358 157.397 8.57479C157.488 8.40843 157.617 8.26476 157.783 8.14378C157.964 8.00767 158.199 7.90181 158.486 7.82619C158.773 7.75058 159.11 7.71277 159.496 7.71277C159.949 7.71277 160.335 7.76948 160.652 7.88291C160.978 7.99633 161.235 8.14756 161.424 8.3366C161.56 8.48027 161.662 8.64284 161.73 8.82432C161.798 8.99823 161.832 9.18727 161.832 9.39143H164.985C164.985 8.82432 164.86 8.29879 164.611 7.81485C164.361 7.33091 164.002 6.91125 163.533 6.55585C163.057 6.20802 162.479 5.93581 161.798 5.73921C161.118 5.53505 160.35 5.43297 159.496 5.43297C158.679 5.43297 157.945 5.53505 157.295 5.73921C156.645 5.94337 156.093 6.21937 155.639 6.5672C155.185 6.91503 154.838 7.31957 154.596 7.78082C154.354 8.24208 154.233 8.72602 154.233 9.23264C154.233 9.75439 154.35 10.2156 154.584 10.6164C154.826 11.0172 155.159 11.3688 155.582 11.6712C156.006 11.9813 156.513 12.2459 157.102 12.4652C157.7 12.6769 158.358 12.8546 159.076 12.9983C159.643 13.1041 160.112 13.21 160.482 13.3159C160.853 13.4217 161.152 13.5352 161.378 13.6561C161.598 13.7847 161.749 13.9208 161.832 14.0645C161.923 14.2081 161.968 14.3745 161.968 14.5635Z" fill="white"/>
<path d="M173.957 18.159C175.144 18.159 176.173 17.9284 177.042 17.4672C177.912 17.0059 178.547 16.4917 178.948 15.9246L177.371 14.2233C177.008 14.6921 176.535 15.0437 175.953 15.2781C175.371 15.5125 174.77 15.6297 174.15 15.6297C173.711 15.6297 173.307 15.5616 172.936 15.4255C172.566 15.2894 172.237 15.0966 171.949 14.8471C171.67 14.6051 171.447 14.3367 171.28 14.0418C171.114 13.7393 170.978 13.3423 170.872 12.8508V12.8168H179.197V11.4784C179.197 10.5786 179.072 9.75817 178.823 9.01714C178.573 8.26854 178.21 7.62959 177.734 7.10029C177.25 6.57098 176.66 6.16265 175.965 5.87532C175.276 5.58042 174.49 5.43297 173.605 5.43297C172.751 5.43297 171.961 5.58798 171.235 5.898C170.509 6.20802 169.881 6.64281 169.352 7.20237C168.823 7.76192 168.411 8.43112 168.116 9.20996C167.821 9.98123 167.673 10.8357 167.673 11.7733V12.227C167.673 13.0512 167.821 13.8263 168.116 14.5522C168.418 15.2705 168.845 15.8944 169.397 16.4237C169.949 16.9605 170.611 17.384 171.382 17.694C172.154 18.004 173.012 18.159 173.957 18.159ZM173.583 7.98499C173.983 7.98499 174.335 8.04926 174.638 8.1778C174.948 8.29879 175.208 8.46514 175.42 8.67687C175.632 8.89615 175.798 9.15324 175.919 9.44814C176.04 9.74304 176.101 10.0568 176.101 10.3896V10.6391H170.929C171.004 10.2383 171.118 9.87537 171.269 9.55023C171.42 9.22508 171.609 8.9453 171.836 8.71089C172.055 8.47649 172.312 8.29879 172.607 8.1778C172.902 8.04926 173.227 7.98499 173.583 7.98499Z" fill="white"/>
<path d="M190.766 5.43297C189.942 5.43297 189.182 5.63335 188.486 6.03411C187.791 6.42731 187.193 6.97174 186.694 7.6674L186.672 7.39519L186.547 5.65981H183.609V17.9322H186.762V10.5597C186.906 10.2119 187.088 9.9094 187.307 9.65231C187.526 9.39521 187.791 9.18349 188.101 9.01714C188.358 8.87347 188.649 8.7676 188.974 8.69955C189.307 8.62394 189.677 8.58613 190.086 8.58613C190.479 8.58613 190.891 8.61259 191.322 8.66552C191.761 8.71089 192.188 8.78273 192.604 8.88103L193.069 5.73921C192.819 5.66359 192.49 5.59554 192.082 5.53505C191.681 5.46699 191.243 5.43297 190.766 5.43297Z" fill="white"/>
<path d="M199.806 17.9322H202.766L207.428 5.65981H204.139L201.451 14.314L201.281 15.176L201.11 14.314L198.411 5.65981H195.122L199.806 17.9322Z" fill="white"/>
<path d="M217.523 17.9322H220.721V17.7394C220.563 17.4293 220.442 17.0588 220.358 16.6278C220.275 16.1968 220.234 15.6524 220.234 14.9945V9.7317C220.234 9.02092 220.101 8.39709 219.837 7.86022C219.572 7.31579 219.205 6.86588 218.736 6.51049C218.268 6.15509 217.712 5.88666 217.069 5.70518C216.434 5.5237 215.746 5.43297 215.005 5.43297C214.181 5.43297 213.447 5.53883 212.804 5.75055C212.169 5.95471 211.632 6.23449 211.194 6.58988C210.748 6.94527 210.407 7.35738 210.173 7.82619C209.946 8.29501 209.833 8.79029 209.833 9.31204H212.986C212.986 9.09275 213.016 8.89237 213.077 8.71089C213.145 8.52942 213.247 8.3744 213.383 8.24586C213.534 8.10219 213.731 7.99255 213.973 7.91693C214.215 7.83376 214.502 7.79217 214.835 7.79217C215.213 7.79217 215.542 7.84132 215.821 7.93962C216.109 8.03035 216.347 8.16268 216.536 8.3366C216.717 8.50295 216.854 8.70333 216.944 8.93774C217.035 9.16459 217.08 9.42168 217.08 9.70902V10.4349H215.322C214.415 10.4349 213.61 10.5181 212.906 10.6845C212.211 10.8432 211.625 11.0777 211.148 11.3877C210.619 11.7279 210.222 12.1627 209.957 12.692C209.693 13.2138 209.561 13.8149 209.561 14.4955C209.561 15.0248 209.666 15.5163 209.878 15.97C210.09 16.4161 210.385 16.8017 210.763 17.1269C211.141 17.452 211.591 17.7053 212.113 17.8868C212.642 18.0683 213.22 18.159 213.848 18.159C214.234 18.159 214.593 18.1212 214.925 18.0456C215.258 17.9776 215.564 17.8793 215.844 17.7507C216.116 17.6297 216.366 17.4861 216.593 17.3197C216.82 17.1534 217.02 16.9757 217.194 16.7866C217.232 17.0059 217.277 17.2138 217.33 17.4104C217.383 17.607 217.447 17.781 217.523 17.9322ZM214.517 15.7204C214.222 15.7204 213.961 15.6864 213.734 15.6184C213.515 15.5427 213.33 15.4444 213.179 15.3235C213.027 15.1949 212.91 15.0399 212.827 14.8584C212.751 14.6694 212.714 14.4652 212.714 14.2459C212.714 13.9662 212.767 13.7091 212.872 13.4747C212.978 13.2327 213.141 13.0248 213.36 12.8508C213.579 12.6845 213.863 12.5559 214.211 12.4652C214.559 12.3669 214.978 12.3177 215.47 12.3177H217.08V14.4274C216.99 14.5862 216.865 14.745 216.706 14.9038C216.547 15.055 216.358 15.1911 216.139 15.3121C215.92 15.4331 215.674 15.5314 215.402 15.607C215.13 15.6826 214.835 15.7204 214.517 15.7204Z" fill="white"/>
<path d="M229.591 2.6541H226.438V5.65981H223.636V7.98499H226.438V13.5654C226.438 14.3745 226.544 15.0701 226.755 15.6524C226.967 16.2271 227.27 16.6997 227.663 17.0702C228.048 17.4483 228.514 17.728 229.058 17.9095C229.61 18.0834 230.222 18.1704 230.895 18.1704C231.243 18.1704 231.595 18.1515 231.95 18.1137C232.313 18.0834 232.661 18.0381 232.994 17.9776C233.326 17.9171 233.64 17.8415 233.935 17.7507C234.23 17.6524 234.487 17.539 234.706 17.4104L234.4 15.2441C234.256 15.2819 234.083 15.3197 233.878 15.3575C233.682 15.3953 233.47 15.4293 233.243 15.4596C233.009 15.4974 232.763 15.5276 232.506 15.5503C232.256 15.573 232.011 15.5843 231.769 15.5843C231.436 15.5843 231.134 15.5465 230.861 15.4709C230.597 15.3953 230.37 15.2667 230.181 15.0853C229.992 14.9114 229.844 14.6769 229.738 14.382C229.64 14.0796 229.591 13.7053 229.591 13.2592V7.98499H234.173V5.65981H229.591V2.6541Z" fill="white"/>
<path d="M260.522 5.43297C259.697 5.43297 258.937 5.63335 258.242 6.03411C257.546 6.42731 256.949 6.97174 256.45 7.6674L256.427 7.39519L256.302 5.65981H253.365V17.9322H256.518V10.5597C256.661 10.2119 256.843 9.9094 257.062 9.65231C257.281 9.39521 257.546 9.18349 257.856 9.01714C258.113 8.87347 258.404 8.7676 258.729 8.69955C259.062 8.62394 259.433 8.58613 259.841 8.58613C260.234 8.58613 260.646 8.61259 261.077 8.66552C261.516 8.71089 261.943 8.78273 262.359 8.88103L262.824 5.73921C262.574 5.66359 262.246 5.59554 261.837 5.53505C261.436 5.46699 260.998 5.43297 260.522 5.43297Z" fill="white"/>
<path d="M267.599 22.8888C268.234 22.8888 268.782 22.7829 269.244 22.5712C269.713 22.3595 270.11 22.0986 270.435 21.7886C270.76 21.4786 271.028 21.1421 271.24 20.7791C271.459 20.4162 271.637 20.0797 271.773 19.7696L278 5.65981H274.518L271.716 12.8735L271.251 14.0985L270.911 12.8508L268.098 5.65981H264.65L269.845 17.4104L269.119 18.7602C269.028 18.9265 268.949 19.0551 268.881 19.1458C268.82 19.2366 268.722 19.3727 268.586 19.5541C268.45 19.7356 268.283 19.902 268.087 20.0532C267.898 20.212 267.678 20.2914 267.429 20.2914C267.308 20.2914 267.145 20.2838 266.941 20.2687C266.745 20.2611 266.582 20.2574 266.454 20.2574L266.068 22.6619C266.34 22.7376 266.586 22.7943 266.805 22.8321C267.032 22.8699 267.297 22.8888 267.599 22.8888Z" fill="white"/>
</svg>
